# xmcd
#
# Track frame offsets: 
#        150
#        11983
#        23460
#        36012
#        45746
#        62607
#        76216
#        88024
#        98475
#        114845
#        124837
#        134530
#        144654
#        154177
#        163566
#        171042
#        180829
#        191259
#        203565
#        215214
#        225987
#        235001
#        245832
#        257919
#        267864
#        275872
#        284675
#        296351
#        306389
#        314478
#        327052
#        338108
#
# Disc length: 4699 seconds
#
# Revision: 0
# Processed by: cddbd v1.5.2PL0 Copyright (c) Steve Scherf et al.
# Submitted via: ExactAudioCopy v1.0b1
#
DISCID=c7125920
DTITLE=Ike and Tina Turner - Mojo Queen 1960-1964
DYEAR=2008
DGENRE=R&B
TTITLE0=A Fool In Love
TTITLE1=Poor Fool
TTITLE2=I Idolize You
TTITLE3=I'm Jealous
TTITLE4=Chances Are
TTITLE5=It's Gonna Work Out Fine
TTITLE6=Tra La La La La
TTITLE7=I Dig You
TTITLE8=You Shoulda Treated Me Right
TTITLE9=Tina's Dilemma
TTITLE10=Mind In A Whirl
TTITLE11=Worried And Hurtin' Inside
TTITLE12=Don't Play Me Cheap
TTITLE13=Wake Up
TTITLE14=I'm Going Back Home
TTITLE15=If I Can't Be First
TTITLE16=I Made A Promise Up Above
TTITLE17=Kinda Strange
TTITLE18=I'm Gonna Cut You Loose
TTITLE19=God Gave Me You
TTITLE20=You Can't Miss Nothing You Never Had
TTITLE21=Good Good Lovin'
TTITLE22=Gonna Find Me A Substitute
TTITLE23=Mojo Queen
TTITLE24=This Man's Crazy
TTITLE25=Over You
TTITLE26=A Fool For A Fool
TTITLE27=What Do You Think I Am
TTITLE28=Shake It Baby
TTITLE29=Finger Poppin'
TTITLE30=You Weren't Ready (For My Love)
TTITLE31=Get It - Get It
EXTD=
EXTT0=
EXTT1=
EXTT2=
EXTT3=
EXTT4=
EXTT5=
EXTT6=
EXTT7=
EXTT8=
EXTT9=
EXTT10=
EXTT11=
EXTT12=
EXTT13=
EXTT14=
EXTT15=
EXTT16=
EXTT17=
EXTT18=
EXTT19=
EXTT20=
EXTT21=
EXTT22=
EXTT23=
EXTT24=
EXTT25=
EXTT26=
EXTT27=
EXTT28=
EXTT29=
EXTT30=
EXTT31=
PLAYORDER=
